<svg width="129" height="20" viewBox="0 0 129 20" fill="none" xmlns="http://www.w3.org/2000/svg">
<path d="M6.10547 19L2.14453 4.17578L0.398438 4V1.9375H7.26562V4L5.42578 4.26953L7.42969 12.5664L7.79297 14.0898H7.86328L8.29688 12.5664L11.6719 1.9375H14.1914L17.6953 12.8594L18.1055 14.207H18.1758L18.5273 12.8594L20.6016 4.26953L18.6562 4V1.9375H25.3945V4L23.7656 4.17578L19.7578 19H16.6641L13.4297 9.02734L13.0195 7.62109H12.9492L12.4922 9.07422L9.22266 19H6.10547Z" fill="#262D33"/>
<path d="M26.4375 19V16.9492L28.0898 16.5977V8.73438L26.2617 8.38281V6.32031H31.5117V16.5977L33.1523 16.9492V19H26.4375ZM27.9727 3.63672V0.71875H31.5117V3.63672H27.9727Z" fill="#262D33"/>
<path d="M34.1133 19V16.9492L35.7656 16.5977V3.13281L33.9375 2.78125V0.71875H39.1875V16.5977L40.8398 16.9492V19H34.1133Z" fill="#262D33"/>
<path d="M41.7773 19V16.9492L43.4297 16.5977V3.13281L41.6016 2.78125V0.71875H46.8516V16.5977L48.5039 16.9492V19H41.7773Z" fill="#262D33"/>
<path d="M57.0586 19.2461C56.2695 19.2461 55.5977 19.0938 55.043 18.7891C54.4883 18.4766 54.0234 18.0273 53.6484 17.4414L53.4023 19H50.4492V3.13281L48.6328 2.78125V0.71875H53.8594V7.66797C54.2266 7.16016 54.6758 6.76953 55.207 6.49609C55.7461 6.22266 56.3711 6.08594 57.082 6.08594C58.6211 6.08594 59.8047 6.69531 60.6328 7.91406C61.4688 9.125 61.8867 10.7422 61.8867 12.7656V13.0117C61.8867 14.9023 61.4688 16.4141 60.6328 17.5469C59.7969 18.6797 58.6055 19.2461 57.0586 19.2461ZM56.0156 16.5859C56.8906 16.5859 57.5195 16.2773 57.9023 15.6602C58.2852 15.0352 58.4766 14.1523 58.4766 13.0117V12.7656C58.4766 11.5312 58.2812 10.5547 57.8906 9.83594C57.5078 9.10938 56.8945 8.74609 56.0508 8.74609C55.5352 8.74609 55.0938 8.86719 54.7266 9.10938C54.3594 9.35156 54.0703 9.67969 53.8594 10.0938V15.3906C54.3359 16.1875 55.0547 16.5859 56.0156 16.5859Z" fill="#262D33"/>
<path d="M69.7148 19.2461C68.4961 19.2461 67.4336 18.9805 66.5273 18.4492C65.6289 17.9102 64.9297 17.1719 64.4297 16.2344C63.9375 15.2969 63.6914 14.2266 63.6914 13.0234V12.5547C63.6914 11.2969 63.9258 10.1836 64.3945 9.21484C64.8633 8.23828 65.5234 7.47266 66.375 6.91797C67.2344 6.35547 68.2461 6.07812 69.4102 6.08594C71.1211 6.08594 72.4297 6.58984 73.3359 7.59766C74.2422 8.59766 74.6953 10.0039 74.6953 11.8164V13.6797H67.2422L67.2188 13.75C67.2812 14.5859 67.5586 15.2734 68.0508 15.8125C68.543 16.3516 69.2422 16.6211 70.1484 16.6211C70.7734 16.6211 71.3555 16.543 71.8945 16.3867C72.4414 16.2227 72.9727 15.9844 73.4883 15.6719L74.4141 17.7812C73.8906 18.2031 73.2305 18.5547 72.4336 18.8359C71.6445 19.1094 70.7383 19.2461 69.7148 19.2461ZM67.2656 11.418H71.4961V11.1133C71.4961 10.3477 71.3359 9.74219 71.0156 9.29688C70.7031 8.84375 70.1875 8.61719 69.4688 8.61719C68.7812 8.61719 68.2578 8.87891 67.8984 9.40234C67.5391 9.91797 67.3164 10.5703 67.2305 11.3594L67.2656 11.418Z" fill="#262D33"/>
<path d="M76.5352 19V16.9492L78.1758 16.5977V8.73438L76.3594 8.38281V6.32031H81.3633L81.4922 7.89062L81.5156 8.17188C82.1406 6.78125 83.0781 6.08594 84.3281 6.08594C84.5312 6.08594 84.75 6.10156 84.9844 6.13281C85.2266 6.16406 85.4453 6.21094 85.6406 6.27344L85.2773 9.42578L83.5781 9.33203C83.0938 9.30859 82.6992 9.39062 82.3945 9.57812C82.0977 9.76562 81.832 10.0352 81.5977 10.3867V16.5977L83.2383 16.9492V19H76.5352Z" fill="#262D33"/>
<path d="M86.918 19V16.9492L88.5586 16.5977V8.73438L86.7422 8.38281V6.32031H91.7461L91.875 7.89062L91.8984 8.17188C92.5234 6.78125 93.4609 6.08594 94.7109 6.08594C94.9141 6.08594 95.1328 6.10156 95.3672 6.13281C95.6094 6.16406 95.8281 6.21094 96.0234 6.27344L95.6602 9.42578L93.9609 9.33203C93.4766 9.30859 93.082 9.39062 92.7773 9.57812C92.4805 9.76562 92.2148 10.0352 91.9805 10.3867V16.5977L93.6211 16.9492V19H86.918Z" fill="#262D33"/>
<path d="M97.1016 19V16.9492L98.7539 16.5977V8.73438L96.9258 8.38281V6.32031H102.176V16.5977L103.816 16.9492V19H97.1016ZM98.6367 3.63672V0.71875H102.176V3.63672H98.6367Z" fill="#262D33"/>
<path d="M111.035 19.2461C109.816 19.2461 108.754 18.9805 107.848 18.4492C106.949 17.9102 106.25 17.1719 105.75 16.2344C105.258 15.2969 105.012 14.2266 105.012 13.0234V12.5547C105.012 11.2969 105.246 10.1836 105.715 9.21484C106.184 8.23828 106.844 7.47266 107.695 6.91797C108.555 6.35547 109.566 6.07812 110.73 6.08594C112.441 6.08594 113.75 6.58984 114.656 7.59766C115.562 8.59766 116.016 10.0039 116.016 11.8164V13.6797H108.562L108.539 13.75C108.602 14.5859 108.879 15.2734 109.371 15.8125C109.863 16.3516 110.562 16.6211 111.469 16.6211C112.094 16.6211 112.676 16.543 113.215 16.3867C113.762 16.2227 114.293 15.9844 114.809 15.6719L115.734 17.7812C115.211 18.2031 114.551 18.5547 113.754 18.8359C112.965 19.1094 112.059 19.2461 111.035 19.2461ZM108.586 11.418H112.816V11.1133C112.816 10.3477 112.656 9.74219 112.336 9.29688C112.023 8.84375 111.508 8.61719 110.789 8.61719C110.102 8.61719 109.578 8.87891 109.219 9.40234C108.859 9.91797 108.637 10.5703 108.551 11.3594L108.586 11.418Z" fill="#262D33"/>
<path d="M123.035 19.2461C122.09 19.2461 121.207 19.1562 120.387 18.9766C119.574 18.7969 118.793 18.5391 118.043 18.2031L118.008 14.6172H120.387L120.844 16.4453C121.109 16.5781 121.398 16.6836 121.711 16.7617C122.031 16.8398 122.395 16.8789 122.801 16.8789C123.566 16.8789 124.105 16.7539 124.418 16.5039C124.73 16.2539 124.887 15.9414 124.887 15.5664C124.887 15.2148 124.719 14.9062 124.383 14.6406C124.047 14.3672 123.387 14.1289 122.402 13.9258C120.895 13.6133 119.785 13.1289 119.074 12.4727C118.371 11.8164 118.02 10.9766 118.02 9.95312C118.02 9.25781 118.195 8.61719 118.547 8.03125C118.906 7.44531 119.449 6.98047 120.176 6.63672C120.91 6.28516 121.848 6.10938 122.988 6.10938C123.941 6.10938 124.812 6.20312 125.602 6.39062C126.398 6.57031 127.066 6.80859 127.605 7.10547L127.641 10.5742H125.273L124.91 8.91016C124.457 8.59766 123.887 8.44141 123.199 8.44141C122.605 8.44141 122.145 8.56641 121.816 8.81641C121.496 9.05859 121.336 9.36719 121.336 9.74219C121.336 10.0703 121.477 10.3672 121.758 10.6328C122.047 10.8906 122.676 11.1289 123.645 11.3477C125.215 11.707 126.359 12.1875 127.078 12.7891C127.797 13.3828 128.156 14.2188 128.156 15.2969C128.156 16.4766 127.727 17.4297 126.867 18.1562C126.016 18.8828 124.738 19.2461 123.035 19.2461Z" fill="#262D33"/>
</svg>
